<svg width="85" height="94" viewBox="0 0 85 94" fill="none" xmlns="http://www.w3.org/2000/svg">
<path d="M31.8836 11.4502C30.7321 12.2453 30.7321 13.9467 31.8836 14.7418L47.3636 25.4304C48.6903 26.3465 50.5 25.3968 50.5 23.7846V17.5962C65.4306 21.2885 76.5 34.7746 76.5 50.846C76.5 69.7618 61.1658 85.096 42.25 85.096C23.3342 85.096 8 69.7618 8 50.846C8 39.2909 13.7184 29.0711 22.4976 22.8617C24.3012 21.5861 24.7292 19.0899 23.4535 17.2863C22.1779 15.4826 19.6816 15.0547 17.878 16.3303C7.06982 23.9747 0 36.5846 0 50.846C0 74.1801 18.916 93.096 42.25 93.096C65.584 93.096 84.5 74.1801 84.5 50.846C84.5 30.3352 69.8845 13.2381 50.5 9.40109V2.40742C50.5 0.795229 48.6903 -0.154404 47.3636 0.76163L31.8836 11.4502Z" fill="white"/>
<path fill-rule="evenodd" clip-rule="evenodd" d="M44.2384 40.2081C45.9408 37.229 48.7497 34.596 52.5 34.596C56.2503 34.596 59.0592 37.229 60.7616 40.2081C62.5124 43.2721 63.5 47.3047 63.5 51.596C63.5 55.8874 62.5124 59.92 60.7616 62.9839C59.0592 65.963 56.2503 68.596 52.5 68.596C48.7497 68.596 45.9408 65.963 44.2384 62.9839C42.4876 59.92 41.5 55.8874 41.5 51.596C41.5 47.3047 42.4876 43.2721 44.2384 40.2081ZM49.4479 43.1849C48.3033 45.188 47.5 48.1554 47.5 51.596C47.5 55.0367 48.3033 58.0041 49.4479 60.0071C50.641 62.095 51.832 62.596 52.5 62.596C53.168 62.596 54.359 62.095 55.5521 60.0071C56.6967 58.0041 57.5 55.0367 57.5 51.596C57.5 48.1554 56.6967 45.188 55.5521 43.1849C54.359 41.097 53.168 40.596 52.5 40.596C51.832 40.596 50.641 41.097 49.4479 43.1849Z" fill="white"/>
<path d="M21.8004 40.6239C20.4351 41.5626 20.0892 43.4303 21.0279 44.7956C21.9665 46.1609 23.8343 46.5068 25.1996 45.5682L28.5 43.2991L28.5 64.596C28.5 66.2529 29.8432 67.596 31.5 67.596C33.1569 67.596 34.5 66.2529 34.5 64.596V37.596C34.5 36.4819 33.8826 35.4596 32.8967 34.941C31.9107 34.4223 30.7185 34.4927 29.8004 35.1239L21.8004 40.6239Z" fill="white"/>
</svg>
