<svg width="33" height="40" viewBox="0 0 33 40" fill="none" xmlns="http://www.w3.org/2000/svg">
<path d="M0.363275 1.8667C0 2.59802 0 3.55538 0 5.47009V34.5299C0 36.4446 0 37.402 0.363275 38.1333C0.682821 38.7766 1.19271 39.2996 1.81985 39.6274C2.53282 40 3.46614 40 5.3328 40H8.6658C10.5325 40 11.4658 40 12.1788 39.6274C12.8059 39.2996 13.3158 38.7766 13.6353 38.1333C13.9986 37.402 13.9986 36.4446 13.9986 34.5299V5.47009C13.9986 3.55538 13.9986 2.59802 13.6353 1.8667C13.3158 1.22341 12.8059 0.7004 12.1788 0.372627C11.4658 0 10.5325 0 8.6658 0H5.3328C3.46615 0 2.53282 0 1.81985 0.372627C1.19271 0.7004 0.682821 1.22341 0.363275 1.8667Z" fill="white"/>
<path d="M19.3614 1.8667C18.9981 2.59802 18.9981 3.55538 18.9981 5.47009V34.5299C18.9981 36.4446 18.9981 37.402 19.3614 38.1333C19.6809 38.7766 20.1908 39.2996 20.8179 39.6274C21.5309 40 22.4642 40 24.3309 40H27.6639C29.5306 40 30.4639 40 31.1768 39.6274C31.804 39.2996 32.3139 38.7766 32.6334 38.1333C32.9967 37.402 32.9967 36.4446 32.9967 34.5299V5.47009C32.9967 3.55538 32.9967 2.59802 32.6334 1.8667C32.3139 1.22341 31.804 0.7004 31.1768 0.372627C30.4639 0 29.5306 0 27.6639 0H24.3309C22.4642 0 21.5309 0 20.8179 0.372627C20.1908 0.7004 19.6809 1.22341 19.3614 1.8667Z" fill="white"/>
</svg>
