<svg width="85" height="94" viewBox="0 0 85 94" fill="none" xmlns="http://www.w3.org/2000/svg">
<path d="M53.1164 11.4502C54.2679 12.2453 54.2679 13.9467 53.1164 14.7418L37.6364 25.4304C36.3097 26.3465 34.5 25.3968 34.5 23.7846V17.5962C19.5694 21.2885 8.5 34.7746 8.5 50.846C8.5 69.7618 23.8342 85.096 42.75 85.096C61.6658 85.096 77 69.7618 77 50.846C77 39.2909 71.2816 29.0711 62.5024 22.8617C60.6988 21.5861 60.2708 19.0899 61.5465 17.2863C62.8221 15.4826 65.3184 15.0547 67.122 16.3303C77.9302 23.9747 85 36.5846 85 50.846C85 74.1801 66.084 93.096 42.75 93.096C19.416 93.096 0.5 74.1801 0.5 50.846C0.5 30.3352 15.1155 13.2381 34.5 9.40109V2.40742C34.5 0.795229 36.3097 -0.154404 37.6364 0.76163L53.1164 11.4502Z" fill="white"/>
<path fill-rule="evenodd" clip-rule="evenodd" d="M44.7384 40.2081C46.4408 37.229 49.2497 34.596 53 34.596C56.7503 34.596 59.5592 37.229 61.2616 40.2081C63.0124 43.2721 64 47.3047 64 51.596C64 55.8874 63.0124 59.92 61.2616 62.9839C59.5592 65.963 56.7503 68.596 53 68.596C49.2497 68.596 46.4408 65.963 44.7384 62.9839C42.9876 59.92 42 55.8874 42 51.596C42 47.3047 42.9876 43.2721 44.7384 40.2081ZM49.9479 43.1849C48.8033 45.188 48 48.1554 48 51.596C48 55.0367 48.8033 58.0041 49.9479 60.0071C51.141 62.095 52.332 62.596 53 62.596C53.668 62.596 54.859 62.095 56.0521 60.0071C57.1967 58.0041 58 55.0367 58 51.596C58 48.1554 57.1967 45.188 56.0521 43.1849C54.859 41.097 53.668 40.596 53 40.596C52.332 40.596 51.141 41.097 49.9479 43.1849Z" fill="white"/>
<path d="M22.3004 40.6239C20.9351 41.5626 20.5892 43.4303 21.5279 44.7956C22.4665 46.1609 24.3343 46.5068 25.6996 45.5682L29 43.2991L29 64.596C29 66.2529 30.3432 67.596 32 67.596C33.6569 67.596 35 66.2529 35 64.596V37.596C35 36.4819 34.3826 35.4596 33.3967 34.941C32.4107 34.4223 31.2185 34.4927 30.3004 35.1239L22.3004 40.6239Z" fill="white"/>
</svg>
