<svg width="76" height="61" viewBox="0 0 76 61" fill="none" xmlns="http://www.w3.org/2000/svg">
<path d="M9.58579 9.58578C10.3668 8.80474 11.6332 8.80474 12.4142 9.58579L16.9368 14.1084L19.7343 11.3109C20.9297 10.1154 22.9772 10.8505 23.1393 12.5334L24.0264 21.7464C24.147 22.9983 23.0958 24.0494 21.8439 23.9289L12.631 23.0417C10.9481 22.8796 10.213 20.8322 11.4085 19.6367L14.1084 16.9368L9.58578 12.4142C8.80474 11.6332 8.80474 10.3668 9.58579 9.58578Z" fill="white"/>
<path fill-rule="evenodd" clip-rule="evenodd" d="M0 5.5C0 2.46243 2.46243 0 5.5 0H54.5C57.5376 0 60 2.46243 60 5.5V23.5H67.5C71.9183 23.5 75.5 27.0817 75.5 31.5V52.5C75.5 56.9183 71.9183 60.5 67.5 60.5H36.5C32.0817 60.5 28.5 56.9183 28.5 52.5V46H5.5C2.46244 46 0 43.5376 0 40.5V5.5ZM55 5.5V23.5H36.5C32.0817 23.5 28.5 27.0817 28.5 31.5V41H5.5C5.22386 41 5 40.7761 5 40.5V5.5C5 5.22386 5.22386 5 5.5 5H54.5C54.7761 5 55 5.22386 55 5.5Z" fill="white"/>
</svg>
