<svg width="46" height="46" viewBox="0 0 46 46" fill="none" xmlns="http://www.w3.org/2000/svg">
<path fill-rule="evenodd" clip-rule="evenodd" d="M0.732233 0.732233C1.70854 -0.244078 3.29146 -0.244077 4.26777 0.732233L23 19.4645L41.7322 0.732233C42.7085 -0.244077 44.2915 -0.244078 45.2678 0.732233C46.2441 1.70854 46.2441 3.29146 45.2678 4.26777L26.5355 23L45.2678 41.7323C46.2441 42.7086 46.2441 44.2915 45.2678 45.2678C44.2915 46.2441 42.7085 46.2441 41.7322 45.2678L23 26.5355L4.26777 45.2678C3.29146 46.2441 1.70854 46.2441 0.732233 45.2678C-0.244077 44.2915 -0.244078 42.7086 0.732233 41.7323L19.4645 23L0.732233 4.26777C-0.244078 3.29146 -0.244077 1.70854 0.732233 0.732233Z" fill="white"/>
</svg>
